<?xml version="1.0" encoding="UTF-8" standalone="no"?>
<svg
   xmlns:dc="http://purl.org/dc/elements/1.1/"
   xmlns:cc="http://creativecommons.org/ns#"
   xmlns:rdf="http://www.w3.org/1999/02/22-rdf-syntax-ns#"
   xmlns:svg="http://www.w3.org/2000/svg"
   xmlns="http://www.w3.org/2000/svg"
   viewBox="0 0 744.09448 1052.3622"
   height="1052.3622"
   width="744.09448"
   xml:space="preserve"
   version="1.1"
   id="svg2"><metadata
     id="metadata8"><rdf:RDF><cc:Work
         rdf:about=""><dc:format>image/svg+xml</dc:format><dc:type
           rdf:resource="http://purl.org/dc/dcmitype/StillImage" /><dc:title></dc:title></cc:Work></rdf:RDF></metadata><defs
     id="defs6" /><g
     transform="matrix(1.25,0,0,-1.25,0,1052.3622)"
     id="g10"><g
       id="g12"><g
         transform="matrix(1,0,0,-1,0,841.88977)"
         id="g14"><path
           id="path16"
           style="fill:#ffffff;fill-opacity:1;fill-rule:evenodd;stroke:#000000;stroke-width:0.0566929;stroke-linecap:butt;stroke-linejoin:miter;stroke-miterlimit:4;stroke-dasharray:none;stroke-opacity:1"
           d="m 13.945,3.172 c -3.629,0 -6.675,3.445 -7.07,7.992 l -0.043,0 0,0.934 -0.004,0.039 c 0.004,0.019 0.004,0.039 0.004,0.058 l 0,95.172 -0.004,0.039 c 0.004,0.02 0.004,0.039 0.004,0.059 l 0,2.164 0.227,0 c 0.804,3.965 3.636,6.742 6.886,6.746 3.246,-0.004 6.082,-2.781 6.883,-6.746 l 0.231,0 0,-2.145 c 0,-0.027 0,-0.05 0.003,-0.078 -0.003,-0.035 -0.003,-0.07 -0.003,-0.105 l 0,-95.086 c 0,-0.024 0,-0.051 0.003,-0.078 -0.003,-0.035 -0.003,-0.071 -0.003,-0.106 l 0,-0.867 -0.051,0 C 20.613,6.617 17.57,3.176 13.945,3.172 Z" /></g><g
         transform="matrix(1,0,0,-1,0,841.88977)"
         id="g18"><path
           id="path20"
           style="fill:#ffffff;fill-opacity:1;fill-rule:nonzero;stroke:#000000;stroke-width:0.0565847;stroke-linecap:butt;stroke-linejoin:miter;stroke-miterlimit:4;stroke-dasharray:none;stroke-opacity:1"
           d="m 17.223,14.172 c 0,1.707 -1.383,3.09 -3.09,3.09 -1.707,0 -3.09,-1.383 -3.09,-3.09 0,-1.707 1.383,-3.09 3.09,-3.09 1.707,0 3.09,1.383 3.09,3.09 z" /></g><g
         transform="matrix(1,0,0,-1,0,841.88977)"
         id="g22"><path
           id="path24"
           style="fill:#ffffff;fill-opacity:1;fill-rule:nonzero;stroke:#000000;stroke-width:0.0565847;stroke-linecap:butt;stroke-linejoin:miter;stroke-miterlimit:4;stroke-dasharray:none;stroke-opacity:1"
           d="m 17.223,43.508 c 0,1.707 -1.383,3.09 -3.09,3.09 -1.707,0 -3.09,-1.383 -3.09,-3.09 0,-1.707 1.383,-3.09 3.09,-3.09 1.707,0 3.09,1.383 3.09,3.09 z" /></g></g></g></svg>