<?xml version="1.0" encoding="UTF-8" standalone="no"?>
<!-- Created with Inkscape (http://www.inkscape.org/) -->

<svg
   xmlns:dc="http://purl.org/dc/elements/1.1/"
   xmlns:cc="http://creativecommons.org/ns#"
   xmlns:rdf="http://www.w3.org/1999/02/22-rdf-syntax-ns#"
   xmlns:svg="http://www.w3.org/2000/svg"
   xmlns="http://www.w3.org/2000/svg"
   xmlns:sodipodi="http://sodipodi.sourceforge.net/DTD/sodipodi-0.dtd"
   xmlns:inkscape="http://www.inkscape.org/namespaces/inkscape"
   inkscape:version="0.91 r13725"
   version="1.1"
   id="svg2"
   viewBox="0 0 744.09448819 1052.3622047"
   height="297mm"
   width="210mm"
   sodipodi:docname="gears.svg">
  <sodipodi:namedview
     inkscape:window-maximized="1"
     inkscape:window-y="27"
     inkscape:window-x="0"
     inkscape:window-height="704"
     inkscape:window-width="1366"
     showgrid="false"
     inkscape:current-layer="g3543"
     inkscape:document-units="px"
     inkscape:cy="1002.7123"
     inkscape:cx="270.91017"
     inkscape:zoom="1.4"
     inkscape:pageshadow="2"
     inkscape:pageopacity="0.0"
     borderopacity="1.0"
     bordercolor="#666666"
     pagecolor="#ffffff"
     id="base" />
  <defs
     id="defs4" />
  <metadata
     id="metadata7">
    <rdf:RDF>
      <cc:Work
         rdf:about="">
        <dc:format>image/svg+xml</dc:format>
        <dc:type
           rdf:resource="http://purl.org/dc/dcmitype/StillImage" />
        <dc:title></dc:title>
      </cc:Work>
    </rdf:RDF>
  </metadata>
  <g
     id="layer1"
     inkscape:groupmode="layer"
     inkscape:label="Taso 1" />
  <g
     id="g3543"
     inkscape:label="Gear15"
     transform="translate(83.767308,83.935623)">
    <g
       id="g4364">
      <path
         inkscape:connector-curvature="0"
         d="m 58.23009,-6.99914 4.90651,-0.58975 4.16487,0.51522 9.33651,4.1131 0,5.92114 -9.33651,4.1131 -4.16487,0.51522 -4.90651,-0.58975 -2.18745,10.29114 4.72219,1.45689 3.59524,2.16468 6.85637,7.55501 -2.40834,5.40922 -10.20227,-0.03999 -4.01436,-1.22332 -4.24244,-2.53442 -6.18412,8.5117 3.72137,3.25163 2.40395,3.43985 3.19071,9.69058 -4.40025,3.96201 -9.30398,-4.18618 -3.16973,-2.75034 -2.84482,-4.04087 -9.11149,5.26052 2.07708,4.48413 0.79701,4.12023 -1.02666,10.15057 -5.63133,1.82973 -6.79693,-7.60853 -1.77703,-3.80181 -0.9553,-4.84861 L 0.8741,58.64271 0.94775,63.58399 0,67.67218 l -5.0665,8.85543 -5.8887,-0.61893 -3.11464,-9.7153 -0.07705,-4.19591 1.09939,-4.81798 -10.00611,-3.25118 -1.94251,4.54404 -2.52864,3.34926 -8.2303,6.02911 -5.12785,-2.96057 1.1062,-10.14221 1.63623,-3.86449 2.964,-3.95428 -7.81866,-7.03996 -3.6228,3.3611 -3.67229,2.03122 -9.97102,2.16029 -3.48035,-4.7903 5.13577,-8.81543 3.06661,-2.86487 4.3161,-2.40686 -4.2793,-9.61145 -4.67667,1.59699 -4.18098,0.36195 -9.98765,-2.08205 -1.23107,-5.79174 8.27732,-5.96439 3.96674,-1.36989 4.9219,-0.44326 0,-10.52104 -4.9219,-0.44326 -3.96674,-1.36989 -8.27732,-5.96439 1.23107,-5.79174 9.98765,-2.08205 4.18098,0.36195 4.67667,1.59699 4.2793,-9.61145 -4.3161,-2.40686 -3.06661,-2.86487 -5.13577,-8.81543 3.48035,-4.7903 9.97102,2.16029 3.67229,2.03122 3.6228,3.3611 7.81866,-7.03996 -2.964,-3.95428 -1.63623,-3.86449 -1.1062,-10.14221 5.12785,-2.96057 8.2303,6.02911 2.52864,3.34926 1.94251,4.54404 10.00611,-3.25118 -1.09939,-4.81798 0.07705,-4.19591 3.11464,-9.7153 5.8887,-0.61893 5.0665,8.85543 0.94775,4.08819 -0.07365,4.94128 10.46341,1.09975 0.9553,-4.84861 1.77703,-3.80181 6.79693,-7.60853 5.63133,1.82973 1.02666,10.15057 -0.79701,4.12023 -2.07708,4.48413 9.11149,5.26052 2.84482,-4.04087 3.16973,-2.75034 9.30398,-4.18618 4.40025,3.96201 -3.19071,9.69058 -2.40395,3.43985 -3.72137,3.25163 6.18412,8.5117 4.24244,-2.53442 4.01436,-1.22332 10.20227,-0.03999 2.40834,5.40922 -6.85637,7.55501 -3.59524,2.16468 -4.72219,1.45689 z"
         style="fill:none;stroke:#000000;stroke-width:0.07086614;stroke-miterlimit:4;stroke-dasharray:none"
         id="path3545" />
      <circle
         r="5.3149605"
         cy="0"
         cx="0"
         style="fill:none;stroke:#000000;stroke-width:0.07086614;stroke-miterlimit:4;stroke-dasharray:none"
         id="path3547" />
    </g>
    <g
       id="g4368"
       transform="translate(138,0)">
      <path
         id="path4370"
         style="fill:none;stroke:#000000;stroke-width:0.07086614;stroke-miterlimit:4;stroke-dasharray:none"
         d="m 58.23009,-6.99914 4.90651,-0.58975 4.16487,0.51522 9.33651,4.1131 0,5.92114 -9.33651,4.1131 -4.16487,0.51522 -4.90651,-0.58975 -2.18745,10.29114 4.72219,1.45689 3.59524,2.16468 6.85637,7.55501 -2.40834,5.40922 -10.20227,-0.03999 -4.01436,-1.22332 -4.24244,-2.53442 -6.18412,8.5117 3.72137,3.25163 2.40395,3.43985 3.19071,9.69058 -4.40025,3.96201 -9.30398,-4.18618 -3.16973,-2.75034 -2.84482,-4.04087 -9.11149,5.26052 2.07708,4.48413 0.79701,4.12023 -1.02666,10.15057 -5.63133,1.82973 -6.79693,-7.60853 -1.77703,-3.80181 -0.9553,-4.84861 L 0.8741,58.64271 0.94775,63.58399 0,67.67218 l -5.0665,8.85543 -5.8887,-0.61893 -3.11464,-9.7153 -0.07705,-4.19591 1.09939,-4.81798 -10.00611,-3.25118 -1.94251,4.54404 -2.52864,3.34926 -8.2303,6.02911 -5.12785,-2.96057 1.1062,-10.14221 1.63623,-3.86449 2.964,-3.95428 -7.81866,-7.03996 -3.6228,3.3611 -3.67229,2.03122 -9.97102,2.16029 -3.48035,-4.7903 5.13577,-8.81543 3.06661,-2.86487 4.3161,-2.40686 -4.2793,-9.61145 -4.67667,1.59699 -4.18098,0.36195 -9.98765,-2.08205 -1.23107,-5.79174 8.27732,-5.96439 3.96674,-1.36989 4.9219,-0.44326 0,-10.52104 -4.9219,-0.44326 -3.96674,-1.36989 -8.27732,-5.96439 1.23107,-5.79174 9.98765,-2.08205 4.18098,0.36195 4.67667,1.59699 4.2793,-9.61145 -4.3161,-2.40686 -3.06661,-2.86487 -5.13577,-8.81543 3.48035,-4.7903 9.97102,2.16029 3.67229,2.03122 3.6228,3.3611 7.81866,-7.03996 -2.964,-3.95428 -1.63623,-3.86449 -1.1062,-10.14221 5.12785,-2.96057 8.2303,6.02911 2.52864,3.34926 1.94251,4.54404 10.00611,-3.25118 -1.09939,-4.81798 0.07705,-4.19591 3.11464,-9.7153 5.8887,-0.61893 5.0665,8.85543 0.94775,4.08819 -0.07365,4.94128 10.46341,1.09975 0.9553,-4.84861 1.77703,-3.80181 6.79693,-7.60853 5.63133,1.82973 1.02666,10.15057 -0.79701,4.12023 -2.07708,4.48413 9.11149,5.26052 2.84482,-4.04087 3.16973,-2.75034 9.30398,-4.18618 4.40025,3.96201 -3.19071,9.69058 -2.40395,3.43985 -3.72137,3.25163 6.18412,8.5117 4.24244,-2.53442 4.01436,-1.22332 10.20227,-0.03999 2.40834,5.40922 -6.85637,7.55501 -3.59524,2.16468 -4.72219,1.45689 z"
         inkscape:connector-curvature="0" />
      <circle
         id="circle4372"
         style="fill:none;stroke:#000000;stroke-width:0.07086614;stroke-miterlimit:4;stroke-dasharray:none"
         cx="0"
         cy="0"
         r="5.3149605" />
    </g>
  </g>
</svg>
