<?xml version="1.0" encoding="UTF-8" standalone="no"?>
<!-- Created with Inkscape (http://www.inkscape.org/) -->

<svg
   xmlns:dc="http://purl.org/dc/elements/1.1/"
   xmlns:cc="http://creativecommons.org/ns#"
   xmlns:rdf="http://www.w3.org/1999/02/22-rdf-syntax-ns#"
   xmlns:svg="http://www.w3.org/2000/svg"
   xmlns="http://www.w3.org/2000/svg"
   xmlns:sodipodi="http://sodipodi.sourceforge.net/DTD/sodipodi-0.dtd"
   xmlns:inkscape="http://www.inkscape.org/namespaces/inkscape"
   width="420mm"
   height="297mm"
   viewBox="0 0 420 297"
   id="SVGRoot"
   version="1.1"
   inkscape:version="0.91 r13725"
   sodipodi:docname="leveämpi tankki.svg">
  <sodipodi:namedview
     id="base"
     pagecolor="#ffffff"
     bordercolor="#666666"
     borderopacity="1.0"
     inkscape:pageopacity="0.0"
     inkscape:pageshadow="2"
     inkscape:zoom="0.35"
     inkscape:cx="721.03799"
     inkscape:cy="340.8294"
     inkscape:document-units="mm"
     inkscape:current-layer="layer1"
     showgrid="false"
     inkscape:window-width="1366"
     inkscape:window-height="705"
     inkscape:window-x="-8"
     inkscape:window-y="-8"
     inkscape:window-maximized="1"
     showguides="false" />
  <defs
     id="defs4138">
    <pattern
       y="0"
       x="0"
       height="6"
       width="6"
       patternUnits="userSpaceOnUse"
       id="EMFhbasepattern" />
  </defs>
  <metadata
     id="metadata4141">
    <rdf:RDF>
      <cc:Work
         rdf:about="">
        <dc:format>image/svg+xml</dc:format>
        <dc:type
           rdf:resource="http://purl.org/dc/dcmitype/StillImage" />
        <dc:title></dc:title>
      </cc:Work>
    </rdf:RDF>
  </metadata>
  <g
     inkscape:label="Taso 1"
     inkscape:groupmode="layer"
     id="layer1">
    <path
       id="path4963"
       d="m 5.01,4.9895695 9.243333,0 0,-4.00000276 10.18,0 0,4.00000276 13.153334,0 0,-4.00000276 10.18,0 0,4.00000276 9.243333,0"
       style="fill:none;stroke:#000000;stroke-width:0.02;stroke-miterlimit:4;stroke-dasharray:none"
       inkscape:label="part"
       inkscape:connector-curvature="0" />
    <path
       id="path4965"
       d="m 57.01,4.9895695 0,8.5766695 4,0 0,10.18 -4,0 0,12.486667 4,0 0,10.180049 -4,0 0,12.486758 4,0 0,10.180072 -4,0 0,12.486748 4,0 0,10.180072 -4,0 0,12.486725 4,0 0,10.18 -4,0 0,8.57667"
       style="fill:none;stroke:#000000;stroke-width:0.02;stroke-miterlimit:4;stroke-dasharray:none"
       inkscape:label="part"
       inkscape:connector-curvature="0" />
    <path
       id="path4967"
       d="m 57.01,122.99 -9.243333,0 0,4 -10.18,0 0,-4 -13.153334,0 0,4 -10.18,0 0,-4 -9.243333,0"
       style="fill:none;stroke:#000000;stroke-width:0.02;stroke-miterlimit:4;stroke-dasharray:none"
       inkscape:label="part"
       inkscape:connector-curvature="0" />
    <path
       id="path4969"
       d="m 5.01,122.99 0,-8.57667 -4,0 0,-10.18 4,0 0,-12.486725 -4,0 0,-10.180072 4,0 0,-12.486748 -4,0 0,-10.180072 4,0 0,-12.486758 -4,0 0,-10.180049 4,0 0,-12.486667 -4,0 0,-10.18 4,0 0,-8.5766695"
       style="fill:none;stroke:#000000;stroke-width:0.02;stroke-miterlimit:4;stroke-dasharray:none"
       inkscape:label="part"
       inkscape:connector-curvature="0" />
    <path
       id="path4971"
       d="m 1.01,129.99027 10.090006,0 0,3.99997 9.82,0 0,-3.99997 10.18,0 0,3.99997 9.820012,0 0,-3.99997 10.180072,0 0,3.99997 9.820068,0 0,-3.99997 10.180072,0 0,3.99997 9.820072,0 0,-3.99997 10.180072,0 0,3.99997 9.820056,0 0,-3.99997 10.18,0 0,3.99997 9.82,0 0,-3.99997 10.18,0 0,3.99997 9.82,0 0,-3.99997 10.09,0"
       style="fill:none;stroke:#000000;stroke-width:0.02;stroke-miterlimit:4;stroke-dasharray:none"
       inkscape:label="part"
       inkscape:connector-curvature="0" />
    <path
       id="path4973"
       d="m 151.01043,129.99027 0,12.75658 -4,0 0,9.81993 4,0 0,12.84657 -4,0 0,9.81998 4,0 0,12.84667 -4,0 0,9.82 4,0 0,12.84666 -4,0 0,9.82 4,0 0,12.84667 -4,0 0,9.82 4,0 0,12.75667"
       style="fill:none;stroke:#000000;stroke-width:0.02;stroke-miterlimit:4;stroke-dasharray:none"
       inkscape:label="part"
       inkscape:connector-curvature="0" />
    <path
       id="path4975"
       d="m 151.01043,255.99 -10.09,0 0,-4 -9.82,0 0,4 -10.18,0 0,-4 -9.82,0 0,4 -10.18,0 0,-4 -9.820056,0 0,4 -10.180072,0 0,-4 -9.820072,0 0,4 -10.180072,0 0,-4 -9.820068,0 0,4 -10.180072,0 0,-4 -9.820012,0 0,4 -10.18,0 0,-4 -9.82,0 0,4 -10.090006,0"
       style="fill:none;stroke:#000000;stroke-width:0.02;stroke-miterlimit:4;stroke-dasharray:none"
       inkscape:label="part"
       inkscape:connector-curvature="0" />
    <path
       id="path4977"
       d="m 1.01,255.99 0,-12.75667 4.0000028,0 0,-9.82 -4.0000028,0 0,-12.84667 4.0000028,0 0,-9.82 -4.0000028,0 0,-12.84666 4.0000028,0 0,-9.82 -4.0000028,0 0,-12.84667 4.0000028,0 0,-9.81998 -4.0000028,0 0,-12.84657 4.0000028,0 0,-9.81993 -4.0000028,0 0,-12.75658"
       style="fill:none;stroke:#000000;stroke-width:0.02;stroke-miterlimit:4;stroke-dasharray:none"
       inkscape:label="part"
       inkscape:connector-curvature="0" />
    <path
       id="path4987"
       d="m 62.01,0.98956674 10.090072,0 0,4.00000276 9.820068,0 0,-4.00000276 10.180072,0 0,4.00000276 9.820058,0 0,-4.00000276 10.18,0 0,4.00000276 9.82,0 0,-4.00000276 10.18,0 0,4.00000276 9.82,0 0,-4.00000276 10.18,0 0,4.00000276 9.82,0 0,-4.00000276 10.18,0 0,4.00000276 9.82,0 0,-4.00000276 10.18,0 0,4.00000276 9.82,0 0,-4.00000276 10.09,0"
       style="fill:none;stroke:#000000;stroke-width:0.02;stroke-miterlimit:4;stroke-dasharray:none"
       inkscape:label="part"
       inkscape:connector-curvature="0" />
    <path
       id="path4989"
       d="m 212.01027,0.98956674 0,12.75667326 -4,0 0,9.82 4,0 0,12.846666 -4,0 0,9.820045 4,0 0,12.846762 -4,0 0,9.820068 4,0 0,12.846762 -4,0 0,9.820072 4,0 0,12.846715 -4,0 0,9.82 4,0 0,12.75667"
       style="fill:none;stroke:#000000;stroke-width:0.02;stroke-miterlimit:4;stroke-dasharray:none"
       inkscape:label="part"
       inkscape:connector-curvature="0" />
    <path
       id="path4991"
       d="m 212.01027,126.99 -10.09,0 0,-4 -9.82,0 0,4 -10.18,0 0,-4 -9.82,0 0,4 -10.18,0 0,-4 -9.82,0 0,4 -10.18,0 0,-4 -9.82,0 0,4 -10.18,0 0,-4 -9.82,0 0,4 -10.18,0 0,-4 -9.820058,0 0,4 -10.180072,0 0,-4 -9.820068,0 0,4 -10.090072,0"
       style="fill:none;stroke:#000000;stroke-width:0.02;stroke-miterlimit:4;stroke-dasharray:none"
       inkscape:label="part"
       inkscape:connector-curvature="0" />
    <path
       id="path4993"
       d="m 62.01,126.99 0,-12.75667 4.000028,0 0,-9.82 -4.000028,0 0,-12.846715 4.000028,0 0,-9.820072 -4.000028,0 0,-12.846762 4.000028,0 0,-9.820068 -4.000028,0 0,-12.846762 4.000028,0 0,-9.820045 -4.000028,0 0,-12.846666 4.000028,0 0,-9.82 -4.000028,0 0,-12.75667326"
       style="fill:none;stroke:#000000;stroke-width:0.02;stroke-miterlimit:4;stroke-dasharray:none"
       inkscape:label="part"
       inkscape:connector-curvature="0" />
    <rect
       style="fill:none;fill-opacity:1;stroke:#000000;stroke-width:0.02;stroke-miterlimit:4;stroke-dasharray:none;stroke-opacity:1"
       id="rect6319"
       width="23.979986"
       height="12.479986"
       x="63.520077"
       y="187.25002" />
    <circle
       style="fill:none;fill-opacity:1;stroke:#000000;stroke-width:0.02;stroke-miterlimit:4;stroke-dasharray:none;stroke-opacity:1"
       id="path6321"
       cx="61.760056"
       cy="193.48993"
       r="1.0400552" />
    <circle
       style="fill:none;fill-opacity:1;stroke:#000000;stroke-width:0.02;stroke-miterlimit:4;stroke-dasharray:none;stroke-opacity:1"
       id="path6321-5"
       cx="89.260429"
       cy="193.48993"
       r="1.040055" />
    <ellipse
       style="fill:none;fill-opacity:1;stroke:#000000;stroke-width:0.02;stroke-miterlimit:4;stroke-dasharray:none;stroke-opacity:1"
       id="path5053"
       cx="32.001949"
       cy="192.99805"
       rx="4.9919486"
       ry="4.9919491" />
    <path
       inkscape:connector-curvature="0"
       id="path5241"
       d="m 74.505407,90.49332 c 0,1.37543 -1.121858,2.49668 -2.497726,2.49668 -1.375852,0 -2.49768,-1.12125 -2.49768,-2.49668 0,-1.37547 1.121828,-2.49702 2.49768,-2.49702 1.375868,0 2.497726,1.12155 2.497726,2.49702 z"
       style="fill:none;stroke:#000000;stroke-width:0.02;stroke-linecap:butt;stroke-linejoin:miter;stroke-miterlimit:4;stroke-dasharray:none;stroke-opacity:1" />
    <path
       inkscape:connector-curvature="0"
       id="path5243"
       d="m 84.496139,90.49332 c 0,1.37543 -1.100678,2.49668 -2.47653,2.49668 -1.375858,0 -2.497696,-1.12125 -2.497696,-2.49668 0,-1.37547 1.121838,-2.49702 2.497696,-2.49702 1.375852,0 2.47653,1.12155 2.47653,2.49702 z"
       style="fill:none;stroke:#000000;stroke-width:0.02;stroke-linecap:butt;stroke-linejoin:miter;stroke-miterlimit:4;stroke-dasharray:none;stroke-opacity:1" />
    <path
       inkscape:connector-curvature="0"
       id="path5245"
       d="m 94.508061,90.49332 c 0,1.37543 -1.121828,2.49668 -2.49769,2.49668 -1.375848,0 -2.497666,-1.12125 -2.497666,-2.49668 0,-1.37547 1.121818,-2.49702 2.497666,-2.49702 1.375862,0 2.49769,1.12155 2.49769,2.49702 z"
       style="fill:none;stroke:#000000;stroke-width:0.02;stroke-linecap:butt;stroke-linejoin:miter;stroke-miterlimit:4;stroke-dasharray:none;stroke-opacity:1" />
    <path
       inkscape:connector-curvature="0"
       id="path5247"
       d="m 104.4988,90.49332 c 0,1.37543 -1.12184,2.49668 -2.4977,2.49668 -1.37588,0 -2.476557,-1.12125 -2.476557,-2.49668 0,-1.37547 1.100677,-2.49702 2.476557,-2.49702 1.37586,0 2.4977,1.12155 2.4977,2.49702 z"
       style="fill:none;stroke:#000000;stroke-width:0.02;stroke-linecap:butt;stroke-linejoin:miter;stroke-miterlimit:4;stroke-dasharray:none;stroke-opacity:1" />
    <path
       inkscape:connector-curvature="0"
       id="path5249"
       d="m 114.51072,90.49332 c 0,1.37543 -1.12183,2.49668 -2.49767,2.49668 -1.37584,0 -2.4977,-1.12125 -2.4977,-2.49668 0,-1.37547 1.12186,-2.49702 2.4977,-2.49702 1.37584,0 2.49767,1.12155 2.49767,2.49702 z"
       style="fill:none;stroke:#000000;stroke-width:0.02;stroke-linecap:butt;stroke-linejoin:miter;stroke-miterlimit:4;stroke-dasharray:none;stroke-opacity:1" />
    <path
       inkscape:connector-curvature="0"
       id="path5251"
       d="m 124.50148,90.49332 c 0,1.37543 -1.12181,2.49668 -2.49766,2.49668 -1.37587,0 -2.47654,-1.12125 -2.47654,-2.49668 0,-1.37547 1.10067,-2.49702 2.47654,-2.49702 1.37585,0 2.49766,1.12155 2.49766,2.49702 z"
       style="fill:none;stroke:#000000;stroke-width:0.02;stroke-linecap:butt;stroke-linejoin:miter;stroke-miterlimit:4;stroke-dasharray:none;stroke-opacity:1" />
    <path
       inkscape:connector-curvature="0"
       id="path5253"
       d="m 134.49198,90.49332 c 0,1.37543 -1.10067,2.49668 -2.47652,2.49668 -1.37584,0 -2.4977,-1.12125 -2.4977,-2.49668 0,-1.37547 1.12186,-2.49702 2.4977,-2.49702 1.37585,0 2.47652,1.12155 2.47652,2.49702 z"
       style="fill:none;stroke:#000000;stroke-width:0.02;stroke-linecap:butt;stroke-linejoin:miter;stroke-miterlimit:4;stroke-dasharray:none;stroke-opacity:1" />
    <path
       inkscape:connector-curvature="0"
       id="path5255"
       d="m 144.5039,90.49332 c 0,1.37543 -1.12182,2.49668 -2.49767,2.49668 -1.37589,0 -2.47655,-1.12125 -2.47655,-2.49668 0,-1.37547 1.10066,-2.49702 2.47655,-2.49702 1.37585,0 2.49767,1.12155 2.49767,2.49702 z"
       style="fill:none;stroke:#000000;stroke-width:0.02;stroke-linecap:butt;stroke-linejoin:miter;stroke-miterlimit:4;stroke-dasharray:none;stroke-opacity:1" />
    <path
       inkscape:connector-curvature="0"
       id="path5257"
       d="m 154.49466,90.49332 c 0,1.37543 -1.10067,2.49668 -2.47651,2.49668 -1.37584,0 -2.49769,-1.12125 -2.49769,-2.49668 0,-1.37547 1.12185,-2.49702 2.49769,-2.49702 1.37584,0 2.47651,1.12155 2.47651,2.49702 z"
       style="fill:none;stroke:#000000;stroke-width:0.02;stroke-linecap:butt;stroke-linejoin:miter;stroke-miterlimit:4;stroke-dasharray:none;stroke-opacity:1" />
    <path
       inkscape:connector-curvature="0"
       id="path5259"
       d="m 164.50659,90.49332 c 0,1.37543 -1.12182,2.49668 -2.49768,2.49668 -1.37586,0 -2.49769,-1.12125 -2.49769,-2.49668 0,-1.37547 1.12183,-2.49702 2.49769,-2.49702 1.37586,0 2.49768,1.12155 2.49768,2.49702 z"
       style="fill:none;stroke:#000000;stroke-width:0.02;stroke-linecap:butt;stroke-linejoin:miter;stroke-miterlimit:4;stroke-dasharray:none;stroke-opacity:1" />
    <path
       inkscape:connector-curvature="0"
       id="path5261"
       d="m 174.49707,90.49332 c 0,1.37543 -1.12182,2.49668 -2.47651,2.49668 -1.37584,0 -2.4977,-1.12125 -2.4977,-2.49668 0,-1.37547 1.12186,-2.49702 2.4977,-2.49702 1.35469,0 2.47651,1.12155 2.47651,2.49702 z"
       style="fill:none;stroke:#000000;stroke-width:0.02;stroke-linecap:butt;stroke-linejoin:miter;stroke-miterlimit:4;stroke-dasharray:none;stroke-opacity:1" />
    <path
       inkscape:connector-curvature="0"
       id="path5263"
       d="m 184.50899,90.49332 c 0,1.37543 -1.12181,2.49668 -2.49766,2.49668 -1.37587,0 -2.4977,-1.12125 -2.4977,-2.49668 0,-1.37547 1.12183,-2.49702 2.4977,-2.49702 1.37585,0 2.49766,1.12155 2.49766,2.49702 z"
       style="fill:none;stroke:#000000;stroke-width:0.02;stroke-linecap:butt;stroke-linejoin:miter;stroke-miterlimit:4;stroke-dasharray:none;stroke-opacity:1" />
    <path
       inkscape:connector-curvature="0"
       id="path5265"
       d="m 194.49977,90.49332 c 0,1.37543 -1.12182,2.49668 -2.49771,2.49668 -1.37584,0 -2.47651,-1.12125 -2.47651,-2.49668 0,-1.37547 1.10067,-2.49702 2.47651,-2.49702 1.37589,0 2.49771,1.12155 2.49771,2.49702 z"
       style="fill:none;stroke:#000000;stroke-width:0.02;stroke-linecap:butt;stroke-linejoin:miter;stroke-miterlimit:4;stroke-dasharray:none;stroke-opacity:1" />
    <path
       inkscape:connector-curvature="0"
       id="path5267"
       d="m 204.49025,90.49332 c 0,1.37543 -1.10066,2.49668 -2.47622,2.49668 -1.37589,0 -2.49771,-1.12125 -2.49771,-2.49668 0,-1.37547 1.12182,-2.49702 2.49771,-2.49702 1.37556,0 2.47622,1.12155 2.47622,2.49702 z"
       style="fill:none;stroke:#000000;stroke-width:0.02;stroke-linecap:butt;stroke-linejoin:miter;stroke-miterlimit:4;stroke-dasharray:none;stroke-opacity:1" />
    <path
       inkscape:connector-curvature="0"
       id="path5269"
       d="m 74.505407,80.50541 c 0,1.37543 -1.121858,2.47582 -2.497726,2.47582 -1.375852,0 -2.49768,-1.10039 -2.49768,-2.47582 0,-1.37547 1.121828,-2.49698 2.49768,-2.49698 1.375868,0 2.497726,1.12151 2.497726,2.49698 z"
       style="fill:none;stroke:#000000;stroke-width:0.02;stroke-linecap:butt;stroke-linejoin:miter;stroke-miterlimit:4;stroke-dasharray:none;stroke-opacity:1" />
    <path
       inkscape:connector-curvature="0"
       id="path5271"
       d="m 84.496139,80.50541 c 0,1.37543 -1.100678,2.47582 -2.47653,2.47582 -1.375858,0 -2.497696,-1.10039 -2.497696,-2.47582 0,-1.37547 1.121838,-2.49698 2.497696,-2.49698 1.375852,0 2.47653,1.12151 2.47653,2.49698 z"
       style="fill:none;stroke:#000000;stroke-width:0.02;stroke-linecap:butt;stroke-linejoin:miter;stroke-miterlimit:4;stroke-dasharray:none;stroke-opacity:1" />
    <path
       inkscape:connector-curvature="0"
       id="path5273"
       d="m 94.508061,80.50541 c 0,1.37543 -1.121828,2.47582 -2.49769,2.47582 -1.375848,0 -2.497666,-1.10039 -2.497666,-2.47582 0,-1.37547 1.121818,-2.49698 2.497666,-2.49698 1.375862,0 2.49769,1.12151 2.49769,2.49698 z"
       style="fill:none;stroke:#000000;stroke-width:0.02;stroke-linecap:butt;stroke-linejoin:miter;stroke-miterlimit:4;stroke-dasharray:none;stroke-opacity:1" />
    <path
       inkscape:connector-curvature="0"
       id="path5275"
       d="m 104.4988,80.50541 c 0,1.37543 -1.12184,2.47582 -2.4977,2.47582 -1.37588,0 -2.476557,-1.10039 -2.476557,-2.47582 0,-1.37547 1.100677,-2.49698 2.476557,-2.49698 1.37586,0 2.4977,1.12151 2.4977,2.49698 z"
       style="fill:none;stroke:#000000;stroke-width:0.02;stroke-linecap:butt;stroke-linejoin:miter;stroke-miterlimit:4;stroke-dasharray:none;stroke-opacity:1" />
    <path
       inkscape:connector-curvature="0"
       id="path5277"
       d="m 114.51072,80.50541 c 0,1.37543 -1.12183,2.47582 -2.49767,2.47582 -1.37584,0 -2.4977,-1.10039 -2.4977,-2.47582 0,-1.37547 1.12186,-2.49698 2.4977,-2.49698 1.37584,0 2.49767,1.12151 2.49767,2.49698 z"
       style="fill:none;stroke:#000000;stroke-width:0.02;stroke-linecap:butt;stroke-linejoin:miter;stroke-miterlimit:4;stroke-dasharray:none;stroke-opacity:1" />
    <path
       inkscape:connector-curvature="0"
       id="path5279"
       d="m 124.50148,80.50541 c 0,1.37543 -1.12181,2.47582 -2.49766,2.47582 -1.37587,0 -2.47654,-1.10039 -2.47654,-2.47582 0,-1.37547 1.10067,-2.49698 2.47654,-2.49698 1.37585,0 2.49766,1.12151 2.49766,2.49698 z"
       style="fill:none;stroke:#000000;stroke-width:0.02;stroke-linecap:butt;stroke-linejoin:miter;stroke-miterlimit:4;stroke-dasharray:none;stroke-opacity:1" />
    <path
       inkscape:connector-curvature="0"
       id="path5281"
       d="m 134.49198,80.50541 c 0,1.37543 -1.10067,2.47582 -2.47652,2.47582 -1.37584,0 -2.4977,-1.10039 -2.4977,-2.47582 0,-1.37547 1.12186,-2.49698 2.4977,-2.49698 1.37585,0 2.47652,1.12151 2.47652,2.49698 z"
       style="fill:none;stroke:#000000;stroke-width:0.02;stroke-linecap:butt;stroke-linejoin:miter;stroke-miterlimit:4;stroke-dasharray:none;stroke-opacity:1" />
    <path
       inkscape:connector-curvature="0"
       id="path5283"
       d="m 144.5039,80.50541 c 0,1.37543 -1.12182,2.47582 -2.49767,2.47582 -1.37589,0 -2.47655,-1.10039 -2.47655,-2.47582 0,-1.37547 1.10066,-2.49698 2.47655,-2.49698 1.37585,0 2.49767,1.12151 2.49767,2.49698 z"
       style="fill:none;stroke:#000000;stroke-width:0.02;stroke-linecap:butt;stroke-linejoin:miter;stroke-miterlimit:4;stroke-dasharray:none;stroke-opacity:1" />
    <path
       inkscape:connector-curvature="0"
       id="path5285"
       d="m 154.49466,80.50541 c 0,1.37543 -1.10067,2.47582 -2.47651,2.47582 -1.37584,0 -2.49769,-1.10039 -2.49769,-2.47582 0,-1.37547 1.12185,-2.49698 2.49769,-2.49698 1.37584,0 2.47651,1.12151 2.47651,2.49698 z"
       style="fill:none;stroke:#000000;stroke-width:0.02;stroke-linecap:butt;stroke-linejoin:miter;stroke-miterlimit:4;stroke-dasharray:none;stroke-opacity:1" />
    <path
       inkscape:connector-curvature="0"
       id="path5287"
       d="m 164.50659,80.50541 c 0,1.37543 -1.12182,2.47582 -2.49768,2.47582 -1.37586,0 -2.49769,-1.10039 -2.49769,-2.47582 0,-1.37547 1.12183,-2.49698 2.49769,-2.49698 1.37586,0 2.49768,1.12151 2.49768,2.49698 z"
       style="fill:none;stroke:#000000;stroke-width:0.02;stroke-linecap:butt;stroke-linejoin:miter;stroke-miterlimit:4;stroke-dasharray:none;stroke-opacity:1" />
    <path
       inkscape:connector-curvature="0"
       id="path5289"
       d="m 174.49707,80.50541 c 0,1.37543 -1.12182,2.47582 -2.47651,2.47582 -1.37584,0 -2.4977,-1.10039 -2.4977,-2.47582 0,-1.37547 1.12186,-2.49698 2.4977,-2.49698 1.35469,0 2.47651,1.12151 2.47651,2.49698 z"
       style="fill:none;stroke:#000000;stroke-width:0.02;stroke-linecap:butt;stroke-linejoin:miter;stroke-miterlimit:4;stroke-dasharray:none;stroke-opacity:1" />
    <path
       inkscape:connector-curvature="0"
       id="path5291"
       d="m 184.50899,80.50541 c 0,1.37543 -1.12181,2.47582 -2.49766,2.47582 -1.37587,0 -2.4977,-1.10039 -2.4977,-2.47582 0,-1.37547 1.12183,-2.49698 2.4977,-2.49698 1.37585,0 2.49766,1.12151 2.49766,2.49698 z"
       style="fill:none;stroke:#000000;stroke-width:0.02;stroke-linecap:butt;stroke-linejoin:miter;stroke-miterlimit:4;stroke-dasharray:none;stroke-opacity:1" />
    <path
       inkscape:connector-curvature="0"
       id="path5293"
       d="m 194.49977,80.50541 c 0,1.37543 -1.12182,2.47582 -2.49771,2.47582 -1.37584,0 -2.47651,-1.10039 -2.47651,-2.47582 0,-1.37547 1.10067,-2.49698 2.47651,-2.49698 1.37589,0 2.49771,1.12151 2.49771,2.49698 z"
       style="fill:none;stroke:#000000;stroke-width:0.02;stroke-linecap:butt;stroke-linejoin:miter;stroke-miterlimit:4;stroke-dasharray:none;stroke-opacity:1" />
    <path
       inkscape:connector-curvature="0"
       id="path5295"
       d="m 204.49025,80.50541 c 0,1.37543 -1.10066,2.47582 -2.47622,2.47582 -1.37589,0 -2.49771,-1.10039 -2.49771,-2.47582 0,-1.37547 1.12182,-2.49698 2.49771,-2.49698 1.37556,0 2.47622,1.12151 2.47622,2.49698 z"
       style="fill:none;stroke:#000000;stroke-width:0.02;stroke-linecap:butt;stroke-linejoin:miter;stroke-miterlimit:4;stroke-dasharray:none;stroke-opacity:1" />
    <path
       inkscape:connector-curvature="0"
       id="path5297"
       d="m 74.505407,47.515929 c 0,1.375432 -1.121858,2.475785 -2.497726,2.475785 -1.375852,0 -2.49768,-1.100353 -2.49768,-2.475785 0,-1.375433 1.121828,-2.496941 2.49768,-2.496941 1.375868,0 2.497726,1.121508 2.497726,2.496941 z"
       style="fill:none;stroke:#000000;stroke-width:0.02;stroke-linecap:butt;stroke-linejoin:miter;stroke-miterlimit:4;stroke-dasharray:none;stroke-opacity:1" />
    <path
       inkscape:connector-curvature="0"
       id="path5299"
       d="m 84.496139,47.515929 c 0,1.375432 -1.100678,2.475785 -2.47653,2.475785 -1.375858,0 -2.497696,-1.100353 -2.497696,-2.475785 0,-1.375433 1.121838,-2.496941 2.497696,-2.496941 1.375852,0 2.47653,1.121508 2.47653,2.496941 z"
       style="fill:none;stroke:#000000;stroke-width:0.02;stroke-linecap:butt;stroke-linejoin:miter;stroke-miterlimit:4;stroke-dasharray:none;stroke-opacity:1" />
    <path
       inkscape:connector-curvature="0"
       id="path5301"
       d="m 94.508061,47.515929 c 0,1.375432 -1.121828,2.475785 -2.49769,2.475785 -1.375848,0 -2.497666,-1.100353 -2.497666,-2.475785 0,-1.375433 1.121818,-2.496941 2.497666,-2.496941 1.375862,0 2.49769,1.121508 2.49769,2.496941 z"
       style="fill:none;stroke:#000000;stroke-width:0.02;stroke-linecap:butt;stroke-linejoin:miter;stroke-miterlimit:4;stroke-dasharray:none;stroke-opacity:1" />
    <path
       inkscape:connector-curvature="0"
       id="path5303"
       d="m 104.4988,47.515929 c 0,1.375432 -1.12184,2.475785 -2.4977,2.475785 -1.37588,0 -2.476557,-1.100353 -2.476557,-2.475785 0,-1.375433 1.100677,-2.496941 2.476557,-2.496941 1.37586,0 2.4977,1.121508 2.4977,2.496941 z"
       style="fill:none;stroke:#000000;stroke-width:0.02;stroke-linecap:butt;stroke-linejoin:miter;stroke-miterlimit:4;stroke-dasharray:none;stroke-opacity:1" />
    <path
       inkscape:connector-curvature="0"
       id="path5305"
       d="m 114.51072,47.515929 c 0,1.375432 -1.12183,2.475785 -2.49767,2.475785 -1.37584,0 -2.4977,-1.100353 -2.4977,-2.475785 0,-1.375433 1.12186,-2.496941 2.4977,-2.496941 1.37584,0 2.49767,1.121508 2.49767,2.496941 z"
       style="fill:none;stroke:#000000;stroke-width:0.02;stroke-linecap:butt;stroke-linejoin:miter;stroke-miterlimit:4;stroke-dasharray:none;stroke-opacity:1" />
    <path
       inkscape:connector-curvature="0"
       id="path5307"
       d="m 124.50148,47.515929 c 0,1.375432 -1.12181,2.475785 -2.49766,2.475785 -1.37587,0 -2.47654,-1.100353 -2.47654,-2.475785 0,-1.375433 1.10067,-2.496941 2.47654,-2.496941 1.37585,0 2.49766,1.121508 2.49766,2.496941 z"
       style="fill:none;stroke:#000000;stroke-width:0.02;stroke-linecap:butt;stroke-linejoin:miter;stroke-miterlimit:4;stroke-dasharray:none;stroke-opacity:1" />
    <path
       inkscape:connector-curvature="0"
       id="path5309"
       d="m 134.49198,47.515929 c 0,1.375432 -1.10067,2.475785 -2.47652,2.475785 -1.37584,0 -2.4977,-1.100353 -2.4977,-2.475785 0,-1.375433 1.12186,-2.496941 2.4977,-2.496941 1.37585,0 2.47652,1.121508 2.47652,2.496941 z"
       style="fill:none;stroke:#000000;stroke-width:0.02;stroke-linecap:butt;stroke-linejoin:miter;stroke-miterlimit:4;stroke-dasharray:none;stroke-opacity:1" />
    <path
       inkscape:connector-curvature="0"
       id="path5311"
       d="m 144.5039,47.515929 c 0,1.375432 -1.12182,2.475785 -2.49767,2.475785 -1.37589,0 -2.47655,-1.100353 -2.47655,-2.475785 0,-1.375433 1.10066,-2.496941 2.47655,-2.496941 1.37585,0 2.49767,1.121508 2.49767,2.496941 z"
       style="fill:none;stroke:#000000;stroke-width:0.02;stroke-linecap:butt;stroke-linejoin:miter;stroke-miterlimit:4;stroke-dasharray:none;stroke-opacity:1" />
    <path
       inkscape:connector-curvature="0"
       id="path5313"
       d="m 154.49466,47.515929 c 0,1.375432 -1.10067,2.475785 -2.47651,2.475785 -1.37584,0 -2.49769,-1.100353 -2.49769,-2.475785 0,-1.375433 1.12185,-2.496941 2.49769,-2.496941 1.37584,0 2.47651,1.121508 2.47651,2.496941 z"
       style="fill:none;stroke:#000000;stroke-width:0.02;stroke-linecap:butt;stroke-linejoin:miter;stroke-miterlimit:4;stroke-dasharray:none;stroke-opacity:1" />
    <path
       inkscape:connector-curvature="0"
       id="path5315"
       d="m 164.50659,47.515929 c 0,1.375432 -1.12182,2.475785 -2.49768,2.475785 -1.37586,0 -2.49769,-1.100353 -2.49769,-2.475785 0,-1.375433 1.12183,-2.496941 2.49769,-2.496941 1.37586,0 2.49768,1.121508 2.49768,2.496941 z"
       style="fill:none;stroke:#000000;stroke-width:0.02;stroke-linecap:butt;stroke-linejoin:miter;stroke-miterlimit:4;stroke-dasharray:none;stroke-opacity:1" />
    <path
       inkscape:connector-curvature="0"
       id="path5317"
       d="m 174.49707,47.515929 c 0,1.375432 -1.12182,2.475785 -2.47651,2.475785 -1.37584,0 -2.4977,-1.100353 -2.4977,-2.475785 0,-1.375433 1.12186,-2.496941 2.4977,-2.496941 1.35469,0 2.47651,1.121508 2.47651,2.496941 z"
       style="fill:none;stroke:#000000;stroke-width:0.02;stroke-linecap:butt;stroke-linejoin:miter;stroke-miterlimit:4;stroke-dasharray:none;stroke-opacity:1" />
    <path
       inkscape:connector-curvature="0"
       id="path5319"
       d="m 184.50899,47.515929 c 0,1.375432 -1.12181,2.475785 -2.49766,2.475785 -1.37587,0 -2.4977,-1.100353 -2.4977,-2.475785 0,-1.375433 1.12183,-2.496941 2.4977,-2.496941 1.37585,0 2.49766,1.121508 2.49766,2.496941 z"
       style="fill:none;stroke:#000000;stroke-width:0.02;stroke-linecap:butt;stroke-linejoin:miter;stroke-miterlimit:4;stroke-dasharray:none;stroke-opacity:1" />
    <path
       inkscape:connector-curvature="0"
       id="path5321"
       d="m 194.49977,47.515929 c 0,1.375432 -1.12182,2.475785 -2.49771,2.475785 -1.37584,0 -2.47651,-1.100353 -2.47651,-2.475785 0,-1.375433 1.10067,-2.496941 2.47651,-2.496941 1.37589,0 2.49771,1.121508 2.49771,2.496941 z"
       style="fill:none;stroke:#000000;stroke-width:0.02;stroke-linecap:butt;stroke-linejoin:miter;stroke-miterlimit:4;stroke-dasharray:none;stroke-opacity:1" />
    <path
       inkscape:connector-curvature="0"
       id="path5323"
       d="m 204.49025,47.515929 c 0,1.375432 -1.10066,2.475785 -2.47622,2.475785 -1.37589,0 -2.49771,-1.100353 -2.49771,-2.475785 0,-1.375433 1.12182,-2.496941 2.49771,-2.496941 1.37556,0 2.47622,1.121508 2.47622,2.496941 z"
       style="fill:none;stroke:#000000;stroke-width:0.02;stroke-linecap:butt;stroke-linejoin:miter;stroke-miterlimit:4;stroke-dasharray:none;stroke-opacity:1" />
    <path
       inkscape:connector-curvature="0"
       id="path5325"
       d="m 74.505407,37.506941 c 0,1.375468 -1.121858,2.496976 -2.497726,2.496976 -1.375852,0 -2.49768,-1.121508 -2.49768,-2.496976 0,-1.375433 1.121828,-2.49694 2.49768,-2.49694 1.375868,0 2.497726,1.121507 2.497726,2.49694 z"
       style="fill:none;stroke:#000000;stroke-width:0.02;stroke-linecap:butt;stroke-linejoin:miter;stroke-miterlimit:4;stroke-dasharray:none;stroke-opacity:1" />
    <path
       inkscape:connector-curvature="0"
       id="path5327"
       d="m 84.496139,37.506941 c 0,1.375468 -1.100678,2.496976 -2.47653,2.496976 -1.375858,0 -2.497696,-1.121508 -2.497696,-2.496976 0,-1.375433 1.121838,-2.49694 2.497696,-2.49694 1.375852,0 2.47653,1.121507 2.47653,2.49694 z"
       style="fill:none;stroke:#000000;stroke-width:0.02;stroke-linecap:butt;stroke-linejoin:miter;stroke-miterlimit:4;stroke-dasharray:none;stroke-opacity:1" />
    <path
       inkscape:connector-curvature="0"
       id="path5329"
       d="m 94.508061,37.506941 c 0,1.375468 -1.121828,2.496976 -2.49769,2.496976 -1.375848,0 -2.497666,-1.121508 -2.497666,-2.496976 0,-1.375433 1.121818,-2.49694 2.497666,-2.49694 1.375862,0 2.49769,1.121507 2.49769,2.49694 z"
       style="fill:none;stroke:#000000;stroke-width:0.02;stroke-linecap:butt;stroke-linejoin:miter;stroke-miterlimit:4;stroke-dasharray:none;stroke-opacity:1" />
    <path
       inkscape:connector-curvature="0"
       id="path5331"
       d="m 104.4988,37.506941 c 0,1.375468 -1.12184,2.496976 -2.4977,2.496976 -1.37588,0 -2.476557,-1.121508 -2.476557,-2.496976 0,-1.375433 1.100677,-2.49694 2.476557,-2.49694 1.37586,0 2.4977,1.121507 2.4977,2.49694 z"
       style="fill:none;stroke:#000000;stroke-width:0.02;stroke-linecap:butt;stroke-linejoin:miter;stroke-miterlimit:4;stroke-dasharray:none;stroke-opacity:1" />
    <path
       inkscape:connector-curvature="0"
       id="path5333"
       d="m 114.51072,37.506941 c 0,1.375468 -1.12183,2.496976 -2.49767,2.496976 -1.37584,0 -2.4977,-1.121508 -2.4977,-2.496976 0,-1.375433 1.12186,-2.49694 2.4977,-2.49694 1.37584,0 2.49767,1.121507 2.49767,2.49694 z"
       style="fill:none;stroke:#000000;stroke-width:0.02;stroke-linecap:butt;stroke-linejoin:miter;stroke-miterlimit:4;stroke-dasharray:none;stroke-opacity:1" />
    <path
       inkscape:connector-curvature="0"
       id="path5335"
       d="m 124.50148,37.506941 c 0,1.375468 -1.12181,2.496976 -2.49766,2.496976 -1.37587,0 -2.47654,-1.121508 -2.47654,-2.496976 0,-1.375433 1.10067,-2.49694 2.47654,-2.49694 1.37585,0 2.49766,1.121507 2.49766,2.49694 z"
       style="fill:none;stroke:#000000;stroke-width:0.02;stroke-linecap:butt;stroke-linejoin:miter;stroke-miterlimit:4;stroke-dasharray:none;stroke-opacity:1" />
    <path
       inkscape:connector-curvature="0"
       id="path5337"
       d="m 134.49198,37.506941 c 0,1.375468 -1.10067,2.496976 -2.47652,2.496976 -1.37584,0 -2.4977,-1.121508 -2.4977,-2.496976 0,-1.375433 1.12186,-2.49694 2.4977,-2.49694 1.37585,0 2.47652,1.121507 2.47652,2.49694 z"
       style="fill:none;stroke:#000000;stroke-width:0.02;stroke-linecap:butt;stroke-linejoin:miter;stroke-miterlimit:4;stroke-dasharray:none;stroke-opacity:1" />
    <path
       inkscape:connector-curvature="0"
       id="path5339"
       d="m 144.5039,37.506941 c 0,1.375468 -1.12182,2.496976 -2.49767,2.496976 -1.37589,0 -2.47655,-1.121508 -2.47655,-2.496976 0,-1.375433 1.10066,-2.49694 2.47655,-2.49694 1.37585,0 2.49767,1.121507 2.49767,2.49694 z"
       style="fill:none;stroke:#000000;stroke-width:0.02;stroke-linecap:butt;stroke-linejoin:miter;stroke-miterlimit:4;stroke-dasharray:none;stroke-opacity:1" />
    <path
       inkscape:connector-curvature="0"
       id="path5341"
       d="m 154.49466,37.506941 c 0,1.375468 -1.10067,2.496976 -2.47651,2.496976 -1.37584,0 -2.49769,-1.121508 -2.49769,-2.496976 0,-1.375433 1.12185,-2.49694 2.49769,-2.49694 1.37584,0 2.47651,1.121507 2.47651,2.49694 z"
       style="fill:none;stroke:#000000;stroke-width:0.02;stroke-linecap:butt;stroke-linejoin:miter;stroke-miterlimit:4;stroke-dasharray:none;stroke-opacity:1" />
    <path
       inkscape:connector-curvature="0"
       id="path5343"
       d="m 164.50659,37.506941 c 0,1.375468 -1.12182,2.496976 -2.49768,2.496976 -1.37586,0 -2.49769,-1.121508 -2.49769,-2.496976 0,-1.375433 1.12183,-2.49694 2.49769,-2.49694 1.37586,0 2.49768,1.121507 2.49768,2.49694 z"
       style="fill:none;stroke:#000000;stroke-width:0.02;stroke-linecap:butt;stroke-linejoin:miter;stroke-miterlimit:4;stroke-dasharray:none;stroke-opacity:1" />
    <path
       inkscape:connector-curvature="0"
       id="path5345"
       d="m 174.49707,37.506941 c 0,1.375468 -1.12182,2.496976 -2.47651,2.496976 -1.37584,0 -2.4977,-1.121508 -2.4977,-2.496976 0,-1.375433 1.12186,-2.49694 2.4977,-2.49694 1.35469,0 2.47651,1.121507 2.47651,2.49694 z"
       style="fill:none;stroke:#000000;stroke-width:0.02;stroke-linecap:butt;stroke-linejoin:miter;stroke-miterlimit:4;stroke-dasharray:none;stroke-opacity:1" />
    <path
       inkscape:connector-curvature="0"
       id="path5347"
       d="m 184.50899,37.506941 c 0,1.375468 -1.12181,2.496976 -2.49766,2.496976 -1.37587,0 -2.4977,-1.121508 -2.4977,-2.496976 0,-1.375433 1.12183,-2.49694 2.4977,-2.49694 1.37585,0 2.49766,1.121507 2.49766,2.49694 z"
       style="fill:none;stroke:#000000;stroke-width:0.02;stroke-linecap:butt;stroke-linejoin:miter;stroke-miterlimit:4;stroke-dasharray:none;stroke-opacity:1" />
    <path
       inkscape:connector-curvature="0"
       id="path5349"
       d="m 194.49977,37.506941 c 0,1.375468 -1.12182,2.496976 -2.49771,2.496976 -1.37584,0 -2.47651,-1.121508 -2.47651,-2.496976 0,-1.375433 1.10067,-2.49694 2.47651,-2.49694 1.37589,0 2.49771,1.121507 2.49771,2.49694 z"
       style="fill:none;stroke:#000000;stroke-width:0.02;stroke-linecap:butt;stroke-linejoin:miter;stroke-miterlimit:4;stroke-dasharray:none;stroke-opacity:1" />
    <path
       inkscape:connector-curvature="0"
       id="path5351"
       d="m 204.49025,37.506941 c 0,1.375468 -1.10066,2.496976 -2.47622,2.496976 -1.37589,0 -2.49771,-1.121508 -2.49771,-2.496976 0,-1.375433 1.12182,-2.49694 2.49771,-2.49694 1.37556,0 2.47622,1.121507 2.47622,2.49694 z"
       style="fill:none;stroke:#000000;stroke-width:0.02;stroke-linecap:butt;stroke-linejoin:miter;stroke-miterlimit:4;stroke-dasharray:none;stroke-opacity:1" />
    <path
       inkscape:connector-curvature="0"
       id="path5353"
       d="m 142.49304,64.000003 c 0,2.750865 -2.22252,4.993951 -4.9742,4.993951 -2.77284,0 -4.99537,-2.243086 -4.99537,-4.993951 0,-2.750795 2.22253,-4.993846 4.99537,-4.993846 2.75168,0 4.9742,2.243051 4.9742,4.993846 z"
       style="fill:none;stroke:#000000;stroke-width:0.02;stroke-linecap:butt;stroke-linejoin:miter;stroke-miterlimit:4;stroke-dasharray:none;stroke-opacity:1" />
    <ellipse
       style="fill:none;fill-opacity:1;stroke:#000000;stroke-width:0.02;stroke-miterlimit:4;stroke-dasharray:none;stroke-opacity:1"
       id="path6360"
       cx="21.5"
       cy="34.000008"
       rx="1.4900267"
       ry="1.4900266" />
    <ellipse
       style="fill:none;fill-opacity:1;stroke:#000000;stroke-width:0.02;stroke-miterlimit:4;stroke-dasharray:none;stroke-opacity:1"
       id="path6360-6"
       cx="21.5"
       cy="64.000008"
       rx="1.4900267"
       ry="1.4900266" />
    <ellipse
       style="fill:none;fill-opacity:1;stroke:#000000;stroke-width:0.02;stroke-miterlimit:4;stroke-dasharray:none;stroke-opacity:1"
       id="path6360-2"
       cx="21.5"
       cy="94"
       rx="1.4900267"
       ry="1.4900266" />
    <ellipse
       style="fill:none;fill-opacity:1;stroke:#000000;stroke-width:0.02;stroke-miterlimit:4;stroke-dasharray:none;stroke-opacity:1"
       id="path6360-1"
       cx="41.500004"
       cy="49.000008"
       rx="1.4900267"
       ry="1.4900266" />
    <ellipse
       style="fill:none;fill-opacity:1;stroke:#000000;stroke-width:0.02;stroke-miterlimit:4;stroke-dasharray:none;stroke-opacity:1"
       id="path6360-6-6"
       cx="41.500004"
       cy="79.000008"
       rx="1.4900267"
       ry="1.4900266" />
    <path
       id="path4963-0"
       d="m 157.88144,134.51302 9.24333,0 0,-4 10.18,0 0,4 13.15333,0 0,-4 10.18,0 0,4 9.24334,0"
       style="fill:none;stroke:#000000;stroke-width:0.02;stroke-miterlimit:4;stroke-dasharray:none"
       inkscape:label="part"
       inkscape:connector-curvature="0" />
    <path
       id="path4965-5"
       d="m 209.88144,134.51302 0,8.57667 4,0 0,10.18 -4,0 0,12.48667 4,0 0,10.18005 -4,0 0,12.48676 4,0 0,10.18007 -4,0 0,12.48675 4,0 0,10.18007 -4,0 0,12.48672 4,0 0,10.18 -4,0 0,8.57667"
       style="fill:none;stroke:#000000;stroke-width:0.02;stroke-miterlimit:4;stroke-dasharray:none"
       inkscape:label="part"
       inkscape:connector-curvature="0" />
    <path
       id="path4967-8"
       d="m 209.88144,252.51345 -9.24334,0 0,4 -10.18,0 0,-4 -13.15333,0 0,4 -10.18,0 0,-4 -9.24333,0"
       style="fill:none;stroke:#000000;stroke-width:0.02;stroke-miterlimit:4;stroke-dasharray:none"
       inkscape:label="part"
       inkscape:connector-curvature="0" />
    <path
       id="path4969-3"
       d="m 157.88144,252.51345 0,-8.57667 -4,0 0,-10.18 4,0 0,-12.48672 -4,0 0,-10.18007 4,0 0,-12.48675 -4,0 0,-10.18007 4,0 0,-12.48676 -4,0 0,-10.18005 4,0 0,-12.48667 -4,0 0,-10.18 4,0 0,-8.57667"
       style="fill:none;stroke:#000000;stroke-width:0.02;stroke-miterlimit:4;stroke-dasharray:none"
       inkscape:label="part"
       inkscape:connector-curvature="0" />
    <ellipse
       style="fill:none;fill-opacity:1;stroke:#000000;stroke-width:0.02;stroke-miterlimit:4;stroke-dasharray:none;stroke-opacity:1"
       id="path6360-61"
       cx="174.37143"
       cy="163.52347"
       rx="1.4900267"
       ry="1.4900266" />
    <ellipse
       style="fill:none;fill-opacity:1;stroke:#000000;stroke-width:0.02;stroke-miterlimit:4;stroke-dasharray:none;stroke-opacity:1"
       id="path6360-6-4"
       cx="174.37143"
       cy="193.52347"
       rx="1.4900267"
       ry="1.4900266" />
    <ellipse
       style="fill:none;fill-opacity:1;stroke:#000000;stroke-width:0.02;stroke-miterlimit:4;stroke-dasharray:none;stroke-opacity:1"
       id="path6360-2-7"
       cx="174.37143"
       cy="223.52347"
       rx="1.4900267"
       ry="1.4900266" />
    <ellipse
       style="fill:none;fill-opacity:1;stroke:#000000;stroke-width:0.02;stroke-miterlimit:4;stroke-dasharray:none;stroke-opacity:1"
       id="path6360-1-0"
       cx="194.37144"
       cy="178.52347"
       rx="1.4900267"
       ry="1.4900266" />
    <ellipse
       style="fill:none;fill-opacity:1;stroke:#000000;stroke-width:0.02;stroke-miterlimit:4;stroke-dasharray:none;stroke-opacity:1"
       id="path6360-6-6-4"
       cx="194.37144"
       cy="208.52347"
       rx="1.4900267"
       ry="1.4900266" />
  </g>
  <g
     id="g5003"
     inkscape:groupmode="layer"
     inkscape:label="newlayer" />
</svg>
